HIERARCHY
ROOT Hips
{
	OFFSET 0.000000 121.760803 0.000000
	CHANNELS 6 Xposition Yposition Zposition Xrotation Yrotation Zrotation 
	JOINT Spine
	{
		OFFSET 0.072000 7.257294 -0.789700
		CHANNELS 3 Xrotation Yrotation Zrotation
		JOINT Spine1
		{
			OFFSET 0.000000 12.508769 -0.658067
			CHANNELS 3 Xrotation Yrotation Zrotation
			JOINT Spine1_split
			{
				OFFSET 0.000000 12.508769 -0.658067
				CHANNELS 3 Xrotation Yrotation Zrotation
				JOINT Spine2
				{
					OFFSET 0.000000 12.508769 -0.658067
					CHANNELS 3 Xrotation Yrotation Zrotation
					JOINT Neck
					{
						OFFSET 0.000000 14.033295 7.520400
						CHANNELS 3 Xrotation Yrotation Zrotation
						JOINT Head
						{
							OFFSET 0.000000 8.198502 5.703100
							CHANNELS 3 Xrotation Yrotation Zrotation
							JOINT HeadTop_End
							{
								OFFSET 0.000000 17.760803 13.332701
								CHANNELS 3 Xrotation Yrotation Zrotation
								End Site
								{
									OFFSET 0.000000 0.000000 0.000000
								}
							}
						}
					}
					JOINT LeftShoulder
					{
						OFFSET 6.292450 5.785301 -0.669000
						CHANNELS 3 Xrotation Yrotation Zrotation
						JOINT LeftShoulder_split
						{
							OFFSET 6.292450 5.785301 -0.669000
							CHANNELS 3 Xrotation Yrotation Zrotation
							JOINT LeftArm
							{
								OFFSET 13.907140 -6.093903 1.965100
								CHANNELS 3 Xrotation Yrotation Zrotation
								JOINT LeftForeArm
								{
									OFFSET 34.140198 0.000000 0.000000
									CHANNELS 3 Xrotation Yrotation Zrotation
									JOINT LeftHand
									{
										OFFSET 40.960209 0.000000 0.000000
										CHANNELS 3 Xrotation Yrotation Zrotation
										JOINT LeftHandThumb1
										{
											OFFSET 10.006996 -7.170425 9.573125
											CHANNELS 3 Xrotation Yrotation Zrotation
											JOINT LeftHandThumb2
											{
												OFFSET 1.835007 -1.059448 1.059443
												CHANNELS 3 Xrotation Yrotation Zrotation
												JOINT LeftHandThumb3
												{
													OFFSET 2.112267 -1.219513 1.219518
													CHANNELS 3 Xrotation Yrotation Zrotation
													JOINT LeftHandThumb4
													{
														OFFSET 4.843811 -2.796570 2.796576
														CHANNELS 3 Xrotation Yrotation Zrotation
														End Site
														{
															OFFSET 0.000000 0.000000 0.000000
														}
													}
												}
											}
										}
										JOINT LeftHandIndex1
										{
											OFFSET 18.389847 -0.922348 4.596882
											CHANNELS 3 Xrotation Yrotation Zrotation
											JOINT LeftHandIndex2
											{
												OFFSET 4.711273 0.000000 0.000000
												CHANNELS 3 Xrotation Yrotation Zrotation
												JOINT LeftHandIndex3
												{
													OFFSET 2.886131 0.000000 0.000000
													CHANNELS 3 Xrotation Yrotation Zrotation
													JOINT LeftHandIndex4
													{
														OFFSET 6.145912 0.000000 0.000000
														CHANNELS 3 Xrotation Yrotation Zrotation
														End Site
														{
															OFFSET 0.000000 0.000000 0.000000
														}
													}
												}
											}
										}
										JOINT LeftHandMiddle1
										{
											OFFSET 18.013008 0.000000 0.000000
											CHANNELS 3 Xrotation Yrotation Zrotation
											JOINT LeftHandMiddle2
											{
												OFFSET 4.946693 0.000000 0.000000
												CHANNELS 3 Xrotation Yrotation Zrotation
												JOINT LeftHandMiddle3
												{
													OFFSET 3.342232 0.000000 0.000000
													CHANNELS 3 Xrotation Yrotation Zrotation
													JOINT LeftHandMiddle4
													{
														OFFSET 4.461754 0.000000 0.000000
														CHANNELS 3 Xrotation Yrotation Zrotation
														End Site
														{
															OFFSET 0.000000 0.000000 0.000000
														}
													}
												}
											}
										}
										JOINT LeftHandRing1
										{
											OFFSET 15.849892 -0.102921 -4.126150
											CHANNELS 3 Xrotation Yrotation Zrotation
											JOINT LeftHandRing2
											{
												OFFSET 3.527054 0.000000 0.000000
												CHANNELS 3 Xrotation Yrotation Zrotation
												JOINT LeftHandRing3
												{
													OFFSET 2.961098 0.000000 0.000000
													CHANNELS 3 Xrotation Yrotation Zrotation
													JOINT LeftHandRing4
													{
														OFFSET 4.927200 0.000000 0.000000
														CHANNELS 3 Xrotation Yrotation Zrotation
														End Site
														{
															OFFSET 0.000000 0.000000 0.000000
														}
													}
												}
											}
										}
										JOINT LeftHandPinky1
										{
											OFFSET 12.791824 -0.832031 -6.799156
											CHANNELS 3 Xrotation Yrotation Zrotation
											JOINT LeftHandPinky2
											{
												OFFSET 3.327133 0.000000 0.000000
												CHANNELS 3 Xrotation Yrotation Zrotation
												JOINT LeftHandPinky3
												{
													OFFSET 3.014900 0.000000 0.000000
													CHANNELS 3 Xrotation Yrotation Zrotation
													JOINT LeftHandPinky4
													{
														OFFSET 5.847786 0.000000 0.000000
														CHANNELS 3 Xrotation Yrotation Zrotation
														End Site
														{
															OFFSET 0.000000 0.000000 0.000000
														}
													}
												}
											}
										}
									}
								}
							}
						}
					}
					JOINT RightShoulder
					{
						OFFSET -6.292450 5.785301 -0.669000
						CHANNELS 3 Xrotation Yrotation Zrotation
						JOINT RightShoulder_split
						{
							OFFSET -6.292450 5.785301 -0.669000
							CHANNELS 3 Xrotation Yrotation Zrotation
							JOINT RightArm
							{
								OFFSET -13.907140 -6.093903 1.965100
								CHANNELS 3 Xrotation Yrotation Zrotation
								JOINT RightForeArm
								{
									OFFSET -34.140198 0.000000 0.000000
									CHANNELS 3 Xrotation Yrotation Zrotation
									JOINT RightHand
									{
										OFFSET -40.960209 0.000000 0.000000
										CHANNELS 3 Xrotation Yrotation Zrotation
										JOINT RightHandThumb1
										{
											OFFSET -10.007050 -7.170456 9.573117
											CHANNELS 3 Xrotation Yrotation Zrotation
											JOINT RightHandThumb2
											{
												OFFSET -1.835007 -1.059448 1.059443
												CHANNELS 3 Xrotation Yrotation Zrotation
												JOINT RightHandThumb3
												{
													OFFSET -2.112267 -1.219513 1.219518
													CHANNELS 3 Xrotation Yrotation Zrotation
													JOINT RightHandThumb4
													{
														OFFSET -4.843834 -2.796585 2.796590
														CHANNELS 3 Xrotation Yrotation Zrotation
														End Site
														{
															OFFSET 0.000000 0.000000 0.000000
														}
													}
												}
											}
										}
										JOINT RightHandIndex1
										{
											OFFSET -18.389870 -0.922424 4.596786
											CHANNELS 3 Xrotation Yrotation Zrotation
											JOINT RightHandIndex2
											{
												OFFSET -4.711273 0.000000 0.000000
												CHANNELS 3 Xrotation Yrotation Zrotation
												JOINT RightHandIndex3
												{
													OFFSET -2.886131 0.000000 0.000000
													CHANNELS 3 Xrotation Yrotation Zrotation
													JOINT RightHandIndex4
													{
														OFFSET -6.145920 0.000000 0.000000
														CHANNELS 3 Xrotation Yrotation Zrotation
														End Site
														{
															OFFSET 0.000000 0.000000 0.000000
														}
													}
												}
											}
										}
										JOINT RightHandMiddle1
										{
											OFFSET -18.013008 0.000000 0.000000
											CHANNELS 3 Xrotation Yrotation Zrotation
											JOINT RightHandMiddle2
											{
												OFFSET -4.946693 0.000000 0.000000
												CHANNELS 3 Xrotation Yrotation Zrotation
												JOINT RightHandMiddle3
												{
													OFFSET -3.342232 0.000000 0.000000
													CHANNELS 3 Xrotation Yrotation Zrotation
													JOINT RightHandMiddle4
													{
														OFFSET -4.461754 0.000000 0.000000
														CHANNELS 3 Xrotation Yrotation Zrotation
														End Site
														{
															OFFSET 0.000000 0.000000 0.000000
														}
													}
												}
											}
										}
										JOINT RightHandRing1
										{
											OFFSET -15.849876 -0.102936 -4.126237
											CHANNELS 3 Xrotation Yrotation Zrotation
											JOINT RightHandRing2
											{
												OFFSET -3.527054 0.000000 0.000000
												CHANNELS 3 Xrotation Yrotation Zrotation
												JOINT RightHandRing3
												{
													OFFSET -2.961098 0.000000 0.000000
													CHANNELS 3 Xrotation Yrotation Zrotation
													JOINT RightHandRing4
													{
														OFFSET -4.927200 0.000000 0.000000
														CHANNELS 3 Xrotation Yrotation Zrotation
														End Site
														{
															OFFSET 0.000000 0.000000 0.000000
														}
													}
												}
											}
										}
										JOINT RightHandPinky1
										{
											OFFSET -12.791786 -0.832077 -6.799222
											CHANNELS 3 Xrotation Yrotation Zrotation
											JOINT RightHandPinky2
											{
												OFFSET -3.327133 0.000000 0.000000
												CHANNELS 3 Xrotation Yrotation Zrotation
												JOINT RightHandPinky3
												{
													OFFSET -3.014900 0.000000 0.000000
													CHANNELS 3 Xrotation Yrotation Zrotation
													JOINT RightHandPinky4
													{
														OFFSET -5.847786 0.000000 0.000000
														CHANNELS 3 Xrotation Yrotation Zrotation
														End Site
														{
															OFFSET 0.000000 0.000000 0.000000
														}
													}
												}
											}
										}
									}
								}
							}
						}
					}
				}
			}
		}
	}
	JOINT LeftUpLeg
	{
		OFFSET 13.026900 -6.336304 -1.092800
		CHANNELS 3 Xrotation Yrotation Zrotation
		JOINT LeftLeg
		{
			OFFSET 0.524474 -46.096886 9.782700
			CHANNELS 3 Xrotation Yrotation Zrotation
			JOINT LeftFoot
			{
				OFFSET -0.524474 -53.427422 -12.948200
				CHANNELS 3 Xrotation Yrotation Zrotation
				JOINT LeftToeBase
				{
					OFFSET 0.192200 -14.009700 16.364100
					CHANNELS 3 Xrotation Yrotation Zrotation
					JOINT LeftToe_End
					{
						OFFSET -1.784700 -0.561700 9.474800
						CHANNELS 3 Xrotation Yrotation Zrotation
						End Site
						{
							OFFSET 0.000000 0.000000 0.000000
						}
					}
				}
			}
		}
	}
	JOINT RightUpLeg
	{
		OFFSET -12.883000 -6.336304 -1.092800
		CHANNELS 3 Xrotation Yrotation Zrotation
		JOINT RightLeg
		{
			OFFSET -0.524587 -46.096825 9.782800
			CHANNELS 3 Xrotation Yrotation Zrotation
			JOINT RightFoot
			{
				OFFSET 0.524587 -53.427383 -12.948300
				CHANNELS 3 Xrotation Yrotation Zrotation
				JOINT RightToeBase
				{
					OFFSET -0.192200 -14.009700 16.364100
					CHANNELS 3 Xrotation Yrotation Zrotation
					JOINT RightToe_End
					{
						OFFSET 1.784700 -0.561700 9.474800
						CHANNELS 3 Xrotation Yrotation Zrotation
						End Site
						{
							OFFSET 0.000000 0.000000 0.000000
						}
					}
				}
			}
		}
	}
}
MOTION
Frames: 4
Frame Time: 0.016667
9.548466 103.485542 1.841929 7.616562 -12.530423 -1.193744 12.236436 3.564665 -0.774675 8.663411 6.770425 -1.612662 0.000000 0.000000 0.000000 -3.297299 6.958099 -0.159534 -0.991915 -3.974977 2.371376 -6.068530 4.595728 3.692732 0.000001 -0.000000 -0.000001 -1.718772 -6.046466 -0.999763 0.000000 0.000000 0.000000 -9.929217 -3.537259 -61.475671 -13.021838 -28.779217 -4.874862 3.253029 -3.484884 2.550465 9.040741 -12.718932 18.216743 1.363588 15.487449 -8.835097 2.768804 5.065082 -0.579227 0.000002 0.000001 -0.000002 0.246869 -3.282369 -9.380869 0.146897 -0.568600 -12.524052 0.007937 -0.244582 -4.933870 0.000000 -0.000001 0.000000 0.303772 -1.400861 -19.445130 -0.067848 -0.992375 -19.744957 0.120421 -0.521070 -9.722791 0.000003 -0.000000 -0.000000 0.311371 -1.053623 -29.065583 -0.418719 -1.362102 -26.922220 -0.031947 -0.468509 -8.966070 -0.000001 0.000001 0.000002 0.350747 -0.343923 -35.674672 -0.294691 -1.232617 -23.599863 -0.758161 -0.710872 -15.408159 -0.000001 -0.000001 -0.000003 5.719877 -19.303440 3.068949 0.000000 0.000000 0.000000 43.556700 52.747601 9.950983 16.038114 32.046845 10.507638 -14.715648 13.315886 13.704569 9.209780 13.472167 -12.080025 2.060321 -16.534843 8.984672 2.637310 -3.206701 2.677729 0.000001 -0.000000 0.000002 0.272416 4.252658 3.917168 0.097337 0.794979 17.452793 -0.022314 0.374564 8.076828 0.000002 -0.000002 0.000002 0.238351 1.901017 12.464133 -0.127017 0.878982 17.470137 -0.255542 0.923238 18.481727 0.000001 -0.000001 -0.000002 0.354428 1.611350 15.137405 -0.271884 0.900469 18.135624 0.013489 0.824252 15.075138 -0.000001 0.000002 -0.000000 0.691703 0.544323 20.829724 -0.117077 0.729744 14.164462 -0.467990 0.674876 13.260788 0.000000 -0.000002 0.000003 -40.063865 5.034107 14.336092 49.602142 10.136846 -0.716526 -15.207765 4.229990 -8.817622 -3.075539 -2.348341 -2.459418 0.000000 -0.000000 0.000000 -27.472988 -6.839409 -15.504929 49.266124 -7.649293 -3.772552 -9.429540 -1.311144 12.249668 -15.200854 -4.745649 7.175885 0.000000 0.000003 -0.000000 
9.720258 104.108772 1.772122 7.675712 -12.575010 -1.598538 12.185513 3.531271 -0.630541 8.547020 6.722060 -1.512190 0.000000 0.000000 0.000000 -3.408235 6.901166 -0.063846 -1.053641 -3.761028 2.184397 -5.982008 4.507761 3.913931 -0.000002 -0.000000 0.000000 -1.721884 -5.625956 -0.861950 0.000000 0.000000 0.000000 -9.809316 -3.483229 -61.749657 -12.683621 -28.217832 -4.423323 2.945148 -3.556560 2.922826 8.621184 -13.079507 18.342620 1.306470 15.454483 -8.827669 2.548443 4.752318 -0.598155 -0.000001 -0.000000 0.000004 0.229290 -3.521997 -8.971272 0.151038 -0.550439 -12.121728 0.010813 -0.207376 -4.147091 -0.000001 -0.000001 0.000000 0.267614 -1.573904 -19.285068 -0.064367 -0.926967 -18.408097 0.102052 -0.466378 -8.764230 -0.000001 0.000003 -0.000001 0.257086 -1.314067 -28.904247 -0.368999 -1.304179 -25.643833 0.000477 -0.409332 -7.777150 -0.000001 -0.000000 -0.000002 0.348995 -0.523204 -35.437166 -0.234768 -1.172897 -22.279360 -0.680095 -0.667828 -14.014341 -0.000001 -0.000000 0.000000 5.552873 -18.831825 2.973356 0.000000 0.000000 0.000000 39.568259 52.456587 11.456154 15.406277 28.844340 12.492176 -12.915768 11.870629 10.921176 8.723135 10.519489 -15.535911 3.760547 -18.612730 9.384815 2.619910 -3.214936 2.638604 0.000000 0.000000 0.000000 0.272400 4.252701 3.917192 0.097356 0.794935 17.452752 -0.022322 0.374583 8.076811 -0.000000 -0.000001 -0.000003 0.238589 1.901101 12.464101 -0.127001 0.878884 17.470150 -0.252918 0.923491 18.481717 0.000001 0.000001 -0.000002 0.333464 1.685679 16.601065 -0.293349 0.971915 19.599071 -0.008517 0.901988 16.538304 0.000001 -0.000002 0.000001 0.658930 0.626620 22.524511 -0.138288 0.820292 15.858970 -0.486936 0.753899 14.955830 -0.000000 -0.000000 0.000002 -39.699494 5.096422 14.531618 48.604535 10.127279 -0.634598 -14.780147 4.163248 -8.620630 -3.075512 -2.348359 -2.459407 -0.000000 -0.000000 0.000000 -26.902076 -7.265989 -14.683097 47.268027 -7.107161 -3.693000 -10.570904 -0.881393 12.701780 -14.272387 -2.388011 5.487252 -0.000000 -0.000001 -0.000000 
9.870581 104.777397 1.676483 7.692112 -12.723528 -1.845905 12.115413 3.514546 -0.503484 8.392773 6.705785 -1.434637 0.000000 0.000000 0.000000 -3.557802 6.874139 0.015578 -1.257226 -3.492915 1.762464 -5.750386 4.331826 4.311510 0.000001 -0.000000 -0.000000 -1.718688 -4.981517 -0.876835 0.000000 0.000000 0.000000 -9.750006 -3.501928 -62.027420 -12.393331 -27.714445 -3.952338 2.908211 -3.641418 2.842478 8.234317 -13.400429 18.456481 1.254994 15.424691 -8.821078 2.348804 4.470542 -0.616936 0.000001 0.000001 -0.000001 0.217572 -3.737801 -8.582423 0.154702 -0.534115 -11.758767 0.012900 -0.173825 -3.437439 -0.000000 0.000000 -0.000000 0.236385 -1.729261 -19.127301 -0.062503 -0.868303 -17.202193 0.084645 -0.417774 -7.899492 -0.000001 0.000004 -0.000002 0.210334 -1.547682 -28.740121 -0.325338 -1.250627 -24.490873 0.028686 -0.354991 -6.704794 0.000001 -0.000001 -0.000005 0.351877 -0.683514 -35.201166 -0.181886 -1.117250 -21.088366 -0.610119 -0.626174 -12.757320 -0.000001 -0.000000 -0.000001 5.335517 -18.451763 2.888871 0.000000 0.000000 0.000000 35.701310 51.672294 13.059073 16.301517 26.406575 13.088685 -11.445490 11.784212 6.571858 8.389703 8.489660 -17.965508 4.956781 -20.040702 9.703258 2.602555 -3.223189 2.599443 -0.000001 0.000001 -0.000001 0.272392 4.252693 3.917156 0.097330 0.794954 17.452834 -0.022318 0.374584 8.076829 -0.000001 -0.000000 -0.000002 0.238813 1.901188 12.464097 -0.127016 0.878923 17.470138 -0.250224 0.923635 18.481727 -0.000000 0.000001 -0.000000 0.317763 1.737028 17.612022 -0.308443 1.021269 20.610000 -0.024859 0.955247 17.548976 0.000001 -0.000000 -0.000001 0.634944 0.682620 23.695207 -0.152813 0.879843 17.029588 -0.501146 0.808213 16.126673 0.000000 0.000002 0.000001 -39.180240 5.306084 14.625247 47.450116 10.153430 -0.553330 -14.288303 4.132265 -8.435880 -3.075505 -2.348371 -2.459415 -0.000000 -0.000001 -0.000000 -26.245460 -7.560392 -14.031686 45.090334 -6.634292 -3.585934 -11.646023 -0.474570 13.055919 -11.724237 -2.235876 4.212633 -0.000000 0.000002 0.000000 
9.972303 105.417091 1.612267 7.712783 -12.825348 -2.090530 12.043148 3.503044 -0.369082 8.235420 6.693139 -1.358526 0.000000 0.000000 0.000000 -3.710609 6.857831 0.094729 -1.458324 -3.264163 1.331756 -5.486253 4.125539 4.660445 0.000001 0.000000 0.000000 -1.716034 -4.454584 -0.893411 0.000000 0.000000 0.000000 -9.717395 -3.541832 -62.272269 -11.923617 -27.096113 -3.494378 2.744761 -3.959302 2.862300 7.883951 -13.676964 18.558657 1.209536 15.398660 -8.815005 2.172646 4.223001 -0.634718 -0.000001 -0.000001 0.000003 0.211197 -3.927042 -8.217435 0.157839 -0.519714 -11.439761 0.014351 -0.144352 -2.813551 0.000001 -0.000001 -0.000000 0.210198 -1.865057 -18.972496 -0.061827 -0.817030 -16.141861 0.068725 -0.375532 -7.139128 0.000001 -0.000001 -0.000001 0.171269 -1.751799 -28.573625 -0.287845 -1.202492 -23.477090 0.052739 -0.306449 -5.761886 -0.000002 -0.000000 0.000002 0.356397 -0.823101 -34.967485 -0.136331 -1.066885 -20.041218 -0.549412 -0.587314 -11.652109 -0.000000 -0.000002 -0.000000 5.098995 -17.776587 2.830946 0.000000 0.000000 0.000000 31.146807 51.316857 16.165647 17.702687 22.785036 11.883002 -9.757199 12.247049 4.285806 8.265263 7.734449 -18.880859 5.407737 -20.572233 9.831251 2.585100 -3.231394 2.560342 -0.000000 -0.000001 -0.000001 0.272382 4.252674 3.917160 0.097381 0.794969 17.452805 -0.022292 0.374585 8.076827 -0.000000 -0.000001 0.000001 0.239035 1.901192 12.464069 -0.126989 0.878930 17.470126 -0.247594 0.923897 18.481718 -0.000001 -0.000003 -0.000000 0.313136 1.756774 17.989231 -0.312751 1.040280 20.987155 -0.031221 0.975074 17.926115 -0.000000 0.000000 -0.000001 0.625750 0.703336 24.132023 -0.156820 0.902494 17.466307 -0.506303 0.828696 16.563523 0.000001 -0.000002 -0.000003 -38.724051 5.691035 14.683452 46.293458 9.960356 -0.300090 -13.816808 4.175078 -8.242906 -3.075523 -2.348393 -2.459425 0.000000 -0.000002 -0.000000 -25.568132 -7.831861 -13.488973 42.909355 -6.386786 -3.408509 -12.546121 0.108149 13.377814 -8.843849 -2.898034 4.936623 -0.000000 0.000001 0.000000 
